<svg xmlns="http://www.w3.org/2000/svg" width="582.812" height="136.406" viewBox="0 0 582.812 136.406">
  <defs>
    <style>
      .cls-1 {
        fill: #2a5298;
        fill-rule: evenodd;
      }
    </style>
  </defs>
  <path id="MPTULD_" data-name="MPTULD " class="cls-1" d="M234.259,454.335l-6.332-1.727V390.256l14.2,3.837v71.753l-2.3,8.25,30.121,8.249,7.483-28.01-6.332-1.727V396.779l1.727-6.139,12.47,3.453v71.753l-2.3,8.25,30.121,8.249,7.482-28.01-6.331-1.727V396.779l6.331-23.022L276.658,361.67l-3.07,10.936-40.1-10.936-5.564,20.145V370.3l-31.272-8.633-7.482,28.011,9.785,2.685v58.516l-5.948,22.254,33.766,9.209ZM367.6,454.527l-6.332-1.727v-7.674l18.61,5.18,28.97-16.883V391.407l7.1-26.667-47.58-13.046-2.686,10.168-31.847-8.634-7.483,28.011,5.948,1.535v68.3l-5.948,22.255,33.766,9.209Zm-6.332-27.243V386.227l1.535-5.947,17.075,4.6v35.3l-15.54-4.413Zm115.111,27.243-19.761-5.372h13.43v-56.4l28.97,2.878,2.686-28.97-77.317-7.29L421.7,388.146l39.9,3.837H441.074v59.09l-5.947,22.255,33.766,9.209Zm80.576,7.866V473.9l31.273,8.633,7.482-28.01-9.785-2.686V393.134l5.948-22.255L558.1,361.67l-7.483,28.011,6.331,1.726v62.544l-14.2-3.837V378.169l2.3-8.249-30.121-8.25-7.483,28.011,6.332,1.726v56.021l-6.332,23.023,43.935,12.086Zm120.866-6.715-59.283-5.564,15.54-1.727V390.64l7.483,1.918,7.482-28.01-36.452-9.785-7.482,28.011v68.108l-2.494,26.859,72.52,6.907Zm74.438,10.36h19.76V373.181l-72.9-19.953-7.674,28.011,26.86,7.29H695.466v56.213l-4.8-1.343-7.1,27.627L746.5,488.1Zm-27.819-75.782,18.61,4.988v62.544l-29.354-8.058h10.744V390.256Z" transform="translate(-189.188 -351.688)"/>
</svg>
