<svg xmlns="http://www.w3.org/2000/svg" width="118.116" height="16.822" viewBox="0 0 118.116 16.822">
  <defs>
    <style>
      .cls-1 {
        fill: #c5c5c5;
      }
    </style>
  </defs>
  <g id="Group_4" data-name="Group 4" transform="translate(-200 -878.428)">
    <path id="Icon_ionic-ios-star" data-name="Icon ionic-ios-star" class="cls-1" d="M19.678,9.2H13.73L11.923,3.8a.655.655,0,0,0-1.229,0L8.886,9.2H2.9a.649.649,0,0,0-.647.647.475.475,0,0,0,.012.109.622.622,0,0,0,.271.457l4.889,3.445L5.546,19.311a.649.649,0,0,0,.222.728.626.626,0,0,0,.364.158.793.793,0,0,0,.4-.146l4.772-3.4,4.772,3.4a.758.758,0,0,0,.4.146.581.581,0,0,0,.36-.158.641.641,0,0,0,.222-.728L15.19,13.856l4.848-3.478.117-.1a.678.678,0,0,0,.21-.433A.685.685,0,0,0,19.678,9.2Z" transform="translate(197.75 875.053)"/>
    <path id="Icon_ionic-ios-star-2" data-name="Icon ionic-ios-star" class="cls-1" d="M19.678,9.2H13.73L11.923,3.8a.655.655,0,0,0-1.229,0L8.886,9.2H2.9a.649.649,0,0,0-.647.647.475.475,0,0,0,.012.109.622.622,0,0,0,.271.457l4.889,3.445L5.546,19.311a.649.649,0,0,0,.222.728.626.626,0,0,0,.364.158.793.793,0,0,0,.4-.146l4.772-3.4,4.772,3.4a.758.758,0,0,0,.4.146.581.581,0,0,0,.36-.158.641.641,0,0,0,.222-.728L15.19,13.856l4.848-3.478.117-.1a.678.678,0,0,0,.21-.433A.685.685,0,0,0,19.678,9.2Z" transform="translate(217.75 875.053)"/>
    <path id="Icon_ionic-ios-star-3" data-name="Icon ionic-ios-star" class="cls-1" d="M19.678,9.2H13.73L11.923,3.8a.655.655,0,0,0-1.229,0L8.886,9.2H2.9a.649.649,0,0,0-.647.647.475.475,0,0,0,.012.109.622.622,0,0,0,.271.457l4.889,3.445L5.546,19.311a.649.649,0,0,0,.222.728.626.626,0,0,0,.364.158.793.793,0,0,0,.4-.146l4.772-3.4,4.772,3.4a.758.758,0,0,0,.4.146.581.581,0,0,0,.36-.158.641.641,0,0,0,.222-.728L15.19,13.856l4.848-3.478.117-.1a.678.678,0,0,0,.21-.433A.685.685,0,0,0,19.678,9.2Z" transform="translate(237.75 875.053)"/>
    <path id="Icon_ionic-ios-star-4" data-name="Icon ionic-ios-star" class="cls-1" d="M19.678,9.2H13.73L11.923,3.8a.655.655,0,0,0-1.229,0L8.886,9.2H2.9a.649.649,0,0,0-.647.647.475.475,0,0,0,.012.109.622.622,0,0,0,.271.457l4.889,3.445L5.546,19.311a.649.649,0,0,0,.222.728.626.626,0,0,0,.364.158.793.793,0,0,0,.4-.146l4.772-3.4,4.772,3.4a.758.758,0,0,0,.4.146.581.581,0,0,0,.36-.158.641.641,0,0,0,.222-.728L15.19,13.856l4.848-3.478.117-.1a.678.678,0,0,0,.21-.433A.685.685,0,0,0,19.678,9.2Z" transform="translate(257.75 875.053)"/>
    <path id="Icon_ionic-ios-star-5" data-name="Icon ionic-ios-star" class="cls-1" d="M19.678,9.2H13.73L11.923,3.8a.655.655,0,0,0-1.229,0L8.886,9.2H2.9a.649.649,0,0,0-.647.647.475.475,0,0,0,.012.109.622.622,0,0,0,.271.457l4.889,3.445L5.546,19.311a.649.649,0,0,0,.222.728.626.626,0,0,0,.364.158.793.793,0,0,0,.4-.146l4.772-3.4,4.772,3.4a.758.758,0,0,0,.4.146.581.581,0,0,0,.36-.158.641.641,0,0,0,.222-.728L15.19,13.856l4.848-3.478.117-.1a.678.678,0,0,0,.21-.433A.685.685,0,0,0,19.678,9.2Z" transform="translate(277.75 875.053)"/>
    <path id="Icon_ionic-ios-star-6" data-name="Icon ionic-ios-star" class="cls-1" d="M19.678,9.2H13.73L11.923,3.8a.655.655,0,0,0-1.229,0L8.886,9.2H2.9a.649.649,0,0,0-.647.647.475.475,0,0,0,.012.109.622.622,0,0,0,.271.457l4.889,3.445L5.546,19.311a.649.649,0,0,0,.222.728.626.626,0,0,0,.364.158.793.793,0,0,0,.4-.146l4.772-3.4,4.772,3.4a.758.758,0,0,0,.4.146.581.581,0,0,0,.36-.158.641.641,0,0,0,.222-.728L15.19,13.856l4.848-3.478.117-.1a.678.678,0,0,0,.21-.433A.685.685,0,0,0,19.678,9.2Z" transform="translate(297.75 875.053)"/>
  </g>
</svg>
